<svg width="24" height="24" viewBox="0 0 24 24" fill="none" xmlns="http://www.w3.org/2000/svg">
<path fill-rule="evenodd" clip-rule="evenodd" d="M12.0007 24C5.37379 24 0 18.6273 0 11.9996C0 8.68598 1.34315 5.68608 3.51497 3.51478L7.03813 7.03773L7.15818 6.92041C5.81892 8.19762 4.98129 10.0006 4.98129 11.9996C4.98129 15.8753 8.12481 19.0171 12.0003 19.0171C13.9379 19.0171 15.6923 18.2309 16.9625 16.9615L20.4857 20.4845L20.5141 20.4556C18.3404 22.6425 15.3294 24 12.0007 24Z" fill="#979798"/>
<path fill-rule="evenodd" clip-rule="evenodd" d="M12.0168 0.000389749C18.6355 0.00974373 24 5.37854 24 12V12.2471L23.9973 12.2479L24 12V0L12.0168 0.000389749ZM16.9625 16.9615L7.03813 7.03773C8.30801 5.76792 10.0613 4.98255 11.9989 4.98255C15.8744 4.98255 19.0179 8.12432 19.0179 11.9996C19.0179 13.9374 18.2328 15.6917 16.9625 16.9615Z" fill="#979798"/>
</svg>
